# This file uses centimeters as units for non-parametric coordinates.

mtllib Mayo.mtl
g default
v 0.866025 -0.710094 -0.500000
v 0.500000 -0.710094 -0.866025
v 0.000000 -0.710094 -1.000000
v -0.500000 -0.710094 -0.866025
v -0.866025 -0.710094 -0.500000
v -1.000000 -0.710094 0.000000
v -0.866025 -0.710094 0.500000
v -0.500000 -0.710094 0.866025
v 0.000000 -0.710094 1.000000
v 0.500000 -0.710094 0.866025
v 0.866025 -0.710094 0.500000
v 1.000000 -0.710094 0.000000
v 0.866025 0.710094 -0.500000
v 0.500000 0.710094 -0.866025
v 0.000000 0.710094 -1.000000
v -0.500000 0.710094 -0.866025
v -0.866025 0.710094 -0.500000
v -1.000000 0.710094 0.000000
v -0.866025 0.710094 0.500000
v -0.500000 0.710094 0.866025
v 0.000000 0.710094 1.000000
v 0.500000 0.710094 0.866025
v 0.866025 0.710094 0.500000
v 1.000000 0.710094 0.000000
v 0.762558 -1.066486 -0.440263
v 0.440263 -1.066486 -0.762558
v 0.000000 -1.066486 0.000000
v 0.000000 -1.066486 -0.880527
v -0.440263 -1.066486 -0.762558
v -0.762558 -1.066486 -0.440263
v -0.880527 -1.066486 0.000000
v -0.762558 -1.066486 0.440263
v -0.440263 -1.066486 0.762558
v 0.000000 -1.066486 0.880527
v 0.440263 -1.066486 0.762558
v 0.762558 -1.066486 0.440263
v 0.880527 -1.066486 0.000000
v 0.601077 1.211889 -0.347032
v 0.347032 1.211889 -0.601077
v 0.000000 1.211889 -0.694064
v -0.347032 1.211889 -0.601077
v -0.601077 1.211889 -0.347032
v -0.694064 1.211889 0.000000
v -0.601077 1.211889 0.347032
v -0.347032 1.211889 0.601077
v 0.000000 1.211889 0.694064
v 0.347032 1.211889 0.601077
v 0.601077 1.211889 0.347032
v 0.694064 1.211889 0.000000
v 0.677276 1.267260 -0.391026
v 0.391026 1.267260 -0.677276
v 0.000000 1.267260 -0.782052
v -0.391026 1.267260 -0.677276
v -0.677276 1.267260 -0.391026
v -0.782052 1.267260 0.000000
v -0.677276 1.267260 0.391026
v -0.391026 1.267260 0.677276
v 0.000000 1.267260 0.782052
v 0.391026 1.267260 0.677276
v 0.677276 1.267260 0.391026
v 0.782052 1.267260 0.000000
v 0.677276 1.453972 -0.391026
v 0.391026 1.453972 -0.677276
v 0.000000 1.453972 -0.782052
v -0.391026 1.453972 -0.677276
v -0.677276 1.453972 -0.391026
v -0.782052 1.453972 0.000000
v -0.677276 1.453972 0.391026
v -0.391026 1.453972 0.677276
v 0.000000 1.453972 0.782052
v 0.391026 1.453972 0.677276
v 0.677276 1.453972 0.391026
v 0.782052 1.453972 0.000000
v 0.541883 1.501193 -0.312856
v 0.312856 1.501193 -0.541883
v 0.000000 1.501193 0.000000
v 0.000000 1.501193 -0.625712
v -0.312856 1.501193 -0.541883
v -0.541883 1.501193 -0.312856
v -0.625712 1.501193 0.000000
v -0.541883 1.501193 0.312856
v -0.312856 1.501193 0.541883
v 0.000000 1.501193 0.625712
v 0.312856 1.501193 0.541883
v 0.541883 1.501193 0.312856
v 0.625712 1.501193 0.000000
vt 0.694703 0.100410
vt 0.760516 0.321870
vt 0.694703 0.321870
vt 0.046264 0.100410
vt 0.046264 0.321870
vt 0.112567 0.100410
vt 0.112567 0.321870
vt 0.178535 0.100410
vt 0.178535 0.321870
vt 0.243955 0.100410
vt 0.243955 0.321870
vt 0.308728 0.100410
vt 0.308728 0.321870
vt 0.372900 0.100410
vt 0.372900 0.321870
vt 0.436746 0.100410
vt 0.436746 0.321870
vt 0.500587 0.100410
vt 0.500587 0.321870
vt 0.564728 0.100410
vt 0.564728 0.321870
vt 0.629429 0.100410
vt 0.629429 0.321870
vt 0.694703 0.040145
vt 0.046264 0.040145
vt 0.112567 0.040145
vt 0.178535 0.040145
vt 0.243955 0.040145
vt 0.308728 0.040145
vt 0.372900 0.040145
vt 0.436746 0.040145
vt 0.500587 0.040145
vt 0.564728 0.040145
vt 0.629429 0.040145
vt 0.760516 0.413845
vt 0.694703 0.413845
vt 0.046264 0.413845
vt 0.112567 0.413845
vt 0.178535 0.413845
vt 0.243955 0.413845
vt 0.308728 0.413845
vt 0.372900 0.413845
vt 0.436746 0.413845
vt 0.500587 0.413845
vt 0.564728 0.413845
vt 0.629429 0.413845
vt 0.826281 0.100410
vt 0.760516 0.100410
vt 0.760516 0.040145
vt 0.826281 0.040145
vt 0.826281 0.321870
vt 0.826281 0.413845
vt 0.236718 0.671351
vt 0.266052 0.710513
vt 0.178306 0.745669
vt 0.271874 0.759096
vt 0.252625 0.804081
vt 0.213462 0.833414
vt 0.164879 0.839236
vt 0.119895 0.819987
vt 0.090561 0.780825
vt 0.084739 0.732242
vt 0.103988 0.687257
vt 0.143151 0.657924
vt 0.191733 0.652101
vt 0.284594 0.627251
vt 0.329563 0.696260
vt 0.289911 0.700858
vt 0.252554 0.651059
vt 0.334003 0.778508
vt 0.297364 0.762664
vt 0.296724 0.851957
vt 0.272916 0.819916
vt 0.227715 0.896926
vt 0.223117 0.857274
vt 0.145467 0.901366
vt 0.161311 0.864727
vt 0.072019 0.864087
vt 0.104059 0.840278
vt 0.027049 0.795078
vt 0.066702 0.790480
vt 0.022610 0.712830
vt 0.059249 0.728674
vt 0.059889 0.639381
vt 0.083697 0.671422
vt 0.128897 0.594412
vt 0.133496 0.634064
vt 0.211146 0.589972
vt 0.195302 0.626611
vt 0.190341 0.587002
vt 0.109396 0.602242
vt 0.046915 0.655913
vt 0.019640 0.733634
vt 0.034880 0.814580
vt 0.088551 0.877061
vt 0.166271 0.904336
vt 0.247217 0.889096
vt 0.309698 0.835425
vt 0.336973 0.757704
vt 0.321733 0.676758
vt 0.268062 0.614277
vt 0.855322 0.934873
vt 0.909989 0.934873
vt 0.909989 0.972484
vt 0.855322 0.972484
vt 0.308656 0.934873
vt 0.308656 0.972484
vt 0.363322 0.934873
vt 0.363322 0.972484
vt 0.417989 0.934873
vt 0.417989 0.972484
vt 0.472656 0.934873
vt 0.472656 0.972484
vt 0.527322 0.934873
vt 0.527322 0.972484
vt 0.581989 0.934873
vt 0.581989 0.972484
vt 0.636656 0.934873
vt 0.636656 0.972484
vt 0.691323 0.934873
vt 0.691323 0.972484
vt 0.745989 0.934873
vt 0.745989 0.972484
vt 0.800656 0.934873
vt 0.800656 0.972484
vt 0.964656 0.934873
vt 0.964656 0.972484
vt 0.713530 0.725362
vt 0.648019 0.790873
vt 0.558530 0.635873
vt 0.737508 0.635873
vt 0.713530 0.546384
vt 0.648019 0.480873
vt 0.558530 0.456894
vt 0.469041 0.480873
vt 0.403530 0.546384
vt 0.379551 0.635873
vt 0.403530 0.725362
vt 0.469041 0.790873
vt 0.558530 0.814852
vn 0.864365 -0.061888 -0.499042
vn 0.499042 -0.061888 -0.864365
vn 0.495620 0.132073 -0.858439
vn 0.858439 0.132073 -0.495620
vn 0.000000 -0.061888 -0.998083
vn 0.000000 0.132073 -0.991240
vn -0.499042 -0.061888 -0.864365
vn -0.495620 0.132073 -0.858439
vn -0.864365 -0.061888 -0.499042
vn -0.858439 0.132073 -0.495620
vn -0.998083 -0.061888 0.000000
vn -0.991240 0.132073 0.000000
vn -0.864365 -0.061888 0.499042
vn -0.858439 0.132073 0.495620
vn -0.499042 -0.061888 0.864365
vn -0.495620 0.132073 0.858439
vn -0.000000 -0.061888 0.998083
vn 0.000000 0.132073 0.991240
vn 0.499042 -0.061888 0.864365
vn 0.495620 0.132073 0.858439
vn 0.864365 -0.061888 0.499042
vn 0.858439 0.132073 0.495620
vn 0.998083 -0.061888 -0.000000
vn 0.991240 0.132073 0.000000
vn 0.310252 -0.784204 -0.537371
vn 0.537371 -0.784204 -0.310252
vn 0.000000 -1.000000 0.000000
vn 0.000000 -0.784204 -0.620503
vn -0.310252 -0.784204 -0.537371
vn -0.537371 -0.784204 -0.310252
vn -0.620503 -0.784204 0.000000
vn -0.537371 -0.784204 0.310252
vn -0.310252 -0.784204 0.537371
vn -0.000000 -0.784204 0.620503
vn 0.310252 -0.784204 0.537371
vn 0.537371 -0.784204 0.310252
vn 0.620503 -0.784204 -0.000000
vn 0.113459 0.991381 -0.065505
vn 0.065506 0.991381 -0.113459
vn 0.000000 1.000000 0.000000
vn 0.000000 0.991381 -0.131011
vn -0.065506 0.991381 -0.113459
vn -0.113459 0.991381 -0.065506
vn -0.131011 0.991381 -0.000000
vn -0.113459 0.991381 0.065505
vn -0.065506 0.991381 0.113459
vn -0.000000 0.991381 0.131011
vn 0.065506 0.991381 0.113459
vn 0.113459 0.991381 0.065506
vn 0.131011 0.991381 0.000000
vn 0.463079 0.377135 -0.802077
vn 0.802077 0.377135 -0.463079
vn 0.000000 0.377135 -0.926158
vn -0.463079 0.377135 -0.802077
vn -0.802077 0.377135 -0.463079
vn -0.926158 0.377135 0.000000
vn -0.802077 0.377135 0.463079
vn -0.463079 0.377135 0.802077
vn -0.000000 0.377135 0.926158
vn 0.463079 0.377135 0.802077
vn 0.802077 0.377135 0.463079
vn 0.926158 0.377135 -0.000000
vn 0.477192 -0.298581 -0.826521
vn 0.826521 -0.298581 -0.477192
vn 0.000000 -0.298581 -0.954384
vn -0.477192 -0.298581 -0.826521
vn -0.826521 -0.298581 -0.477192
vn -0.954384 -0.298581 0.000000
vn -0.826521 -0.298581 0.477192
vn -0.477192 -0.298581 0.826521
vn 0.000000 -0.298581 0.954384
vn 0.477192 -0.298581 0.826521
vn 0.826521 -0.298581 0.477192
vn 0.954384 -0.298581 -0.000000
vn 0.440853 0.471801 -0.763579
vn 0.763579 0.471801 -0.440853
vn 0.000000 0.471801 -0.881705
vn -0.440853 0.471801 -0.763579
vn -0.763579 0.471801 -0.440853
vn -0.881705 0.471801 -0.000000
vn -0.763579 0.471801 0.440853
vn -0.440853 0.471801 0.763579
vn -0.000000 0.471801 0.881705
vn 0.440853 0.471801 0.763579
vn 0.763579 0.471801 0.440853
vn 0.881705 0.471801 0.000000
s 1
g pCylinder1
usemtl blinn1SG
f 1/1/1 2/48/2 14/2/3 13/3/4
f 2/48/2 3/47/5 15/51/6 14/2/3
f 3/4/5 4/6/7 16/7/8 15/5/6
f 4/6/7 5/8/9 17/9/10 16/7/8
f 5/8/9 6/10/11 18/11/12 17/9/10
f 6/10/11 7/12/13 19/13/14 18/11/12
f 7/12/13 8/14/15 20/15/16 19/13/14
f 8/14/15 9/16/17 21/17/18 20/15/16
f 9/16/17 10/18/19 22/19/20 21/17/18
f 10/18/19 11/20/21 23/21/22 22/19/20
f 11/20/21 12/22/23 24/23/24 23/21/22
f 12/22/23 1/1/1 13/3/4 24/23/24
f 26/128/25 25/129/26 27/130/27
f 28/131/28 26/128/25 27/130/27
f 29/132/29 28/131/28 27/130/27
f 30/133/30 29/132/29 27/130/27
f 31/134/31 30/133/30 27/130/27
f 32/135/32 31/134/31 27/130/27
f 33/136/33 32/135/32 27/130/27
f 34/137/34 33/136/33 27/130/27
f 35/138/35 34/137/34 27/130/27
f 36/139/36 35/138/35 27/130/27
f 37/140/37 36/139/36 27/130/27
f 25/129/26 37/140/37 27/130/27
f 74/53/38 75/54/39 76/55/40
f 75/54/39 77/56/41 76/55/40
f 77/56/41 78/57/42 76/55/40
f 78/57/42 79/58/43 76/55/40
f 79/58/43 80/59/44 76/55/40
f 80/59/44 81/60/45 76/55/40
f 81/60/45 82/61/46 76/55/40
f 82/61/46 83/62/47 76/55/40
f 83/62/47 84/63/48 76/55/40
f 84/63/48 85/64/49 76/55/40
f 85/64/49 86/65/50 76/55/40
f 86/65/50 74/53/38 76/55/40
f 2/48/2 1/1/1 25/24/26 26/49/25
f 3/47/5 2/48/2 26/49/25 28/50/28
f 4/6/7 3/4/5 28/25/28 29/26/29
f 5/8/9 4/6/7 29/26/29 30/27/30
f 6/10/11 5/8/9 30/27/30 31/28/31
f 7/12/13 6/10/11 31/28/31 32/29/32
f 8/14/15 7/12/13 32/29/32 33/30/33
f 9/16/17 8/14/15 33/30/33 34/31/34
f 10/18/19 9/16/17 34/31/34 35/32/35
f 11/20/21 10/18/19 35/32/35 36/33/36
f 12/22/23 11/20/21 36/33/36 37/34/37
f 1/1/1 12/22/23 37/34/37 25/24/26
f 13/3/4 14/2/3 39/35/51 38/36/52
f 14/2/3 15/51/6 40/52/53 39/35/51
f 15/5/6 16/7/8 41/38/54 40/37/53
f 16/7/8 17/9/10 42/39/55 41/38/54
f 17/9/10 18/11/12 43/40/56 42/39/55
f 18/11/12 19/13/14 44/41/57 43/40/56
f 19/13/14 20/15/16 45/42/58 44/41/57
f 20/15/16 21/17/18 46/43/59 45/42/58
f 21/17/18 22/19/20 47/44/60 46/43/59
f 22/19/20 23/21/22 48/45/61 47/44/60
f 23/21/22 24/23/24 49/46/62 48/45/61
f 24/23/24 13/3/4 38/36/52 49/46/62
f 38/102/52 39/103/51 51/104/63 50/105/64
f 39/103/51 40/126/53 52/127/65 51/104/63
f 40/106/53 41/108/54 53/109/66 52/107/65
f 41/108/54 42/110/55 54/111/67 53/109/66
f 42/110/55 43/112/56 55/113/68 54/111/67
f 43/112/56 44/114/57 56/115/69 55/113/68
f 44/114/57 45/116/58 57/117/70 56/115/69
f 45/116/58 46/118/59 58/119/71 57/117/70
f 46/118/59 47/120/60 59/121/72 58/119/71
f 47/120/60 48/122/61 60/123/73 59/121/72
f 48/122/61 49/124/62 61/125/74 60/123/73
f 49/124/62 38/102/52 50/105/64 61/125/74
f 50/66/64 51/100/63 63/68/75 62/69/76
f 51/67/63 52/99/65 64/71/77 63/68/75
f 52/70/65 53/98/66 65/73/78 64/71/77
f 53/72/66 54/97/67 66/75/79 65/73/78
f 54/74/67 55/96/68 67/77/80 66/75/79
f 55/76/68 56/95/69 68/79/81 67/77/80
f 56/78/69 57/94/70 69/81/82 68/79/81
f 57/80/70 58/93/71 70/83/83 69/81/82
f 58/82/71 59/92/72 71/85/84 70/83/83
f 59/84/72 60/91/73 72/87/85 71/85/84
f 60/86/73 61/90/74 73/89/86 72/87/85
f 61/88/74 50/101/64 62/69/76 73/89/86
f 62/69/76 63/68/75 75/54/39 74/53/38
f 63/68/75 64/71/77 77/56/41 75/54/39
f 64/71/77 65/73/78 78/57/42 77/56/41
f 65/73/78 66/75/79 79/58/43 78/57/42
f 66/75/79 67/77/80 80/59/44 79/58/43
f 67/77/80 68/79/81 81/60/45 80/59/44
f 68/79/81 69/81/82 82/61/46 81/60/45
f 69/81/82 70/83/83 83/62/47 82/61/46
f 70/83/83 71/85/84 84/63/48 83/62/47
f 71/85/84 72/87/85 85/64/49 84/63/48
f 72/87/85 73/89/86 86/65/50 85/64/49
f 73/89/86 62/69/76 74/53/38 86/65/50
